<?xml version="1.0" encoding="UTF-8"?>
<svg width="30px" height="30px" viewBox="0 0 30 30" version="1.1" xmlns="http://www.w3.org/2000/svg" xmlns:xlink="http://www.w3.org/1999/xlink">
    <!-- Generator: Sketch 51.3 (57544) - http://www.bohemiancoding.com/sketch -->
    <title>insta-white</title>
    <desc>Created with Sketch.</desc>
    <defs>
        <polygon id="path-1" points="0.0132352941 0.165441176 29.8345588 0.165441176 29.8345588 30 0.0132352941 30"></polygon>
    </defs>
    <g id="Page-1" stroke="none" stroke-width="1" fill="none" fill-rule="evenodd">
        <g id="01-sgv" transform="translate(-321.000000, -540.000000)">
            <g id="Group-29" transform="translate(278.000000, 294.000000)">
                <g id="Group-8" transform="translate(8.000000, 226.000000)">
                    <g id="Group-7">
                        <g id="Group-4" transform="translate(35.000000, 20.000000)">
                            <g id="insta-white">
                                <g id="Group-3">
                                    <mask id="mask-2" fill="white">
                                        <use xlink:href="#path-1"></use>
                                    </mask>
                                    <g id="Clip-2"></g>
                                    <path d="M21.6013235,0.165441176 L8.23323529,0.165441176 C3.69308824,0.165441176 0,3.85875 0,8.39889706 L0,21.7667647 C0,26.3069118 3.69308824,30 8.23323529,30 L21.6013235,30 C26.1414706,30 29.8345588,26.3060294 29.8345588,21.7667647 L29.8345588,8.39889706 C29.8345588,3.85875 26.1414706,0.165441176 21.6013235,0.165441176 Z M27.1875,21.7667647 C27.1875,24.8472794 24.6818382,27.3529412 21.6013235,27.3529412 L8.23323529,27.3529412 C5.15272059,27.3529412 2.64705882,24.8472794 2.64705882,21.7667647 L2.64705882,8.39889706 C2.64705882,5.31838235 5.15272059,2.8125 8.23323529,2.8125 L21.6013235,2.8125 C24.6818382,2.8125 27.1875,5.31838235 27.1875,8.39889706 L27.1875,21.7667647 Z" id="Fill-1" fill="#FFFFFF" mask="url(#mask-2)"></path>
                                </g>
                                <path d="M14.9172794,7.39588235 C10.6777941,7.39588235 7.22933824,10.8443382 7.22933824,15.0827206 C7.22933824,19.3222059 10.6777941,22.7706618 14.9172794,22.7706618 C19.1558824,22.7706618 22.6052206,19.3222059 22.6052206,15.0827206 C22.6052206,10.8443382 19.1558824,7.39588235 14.9172794,7.39588235 Z M14.9172794,20.1227206 C12.1383088,20.1227206 9.87639706,17.8625735 9.87639706,15.0827206 C9.87639706,12.3039706 12.1374265,10.0420588 14.9172794,10.0420588 C17.6971324,10.0420588 19.9581618,12.3039706 19.9581618,15.0827206 C19.9581618,17.8625735 17.69625,20.1227206 14.9172794,20.1227206 Z" id="Fill-4" fill="#FFFFFF"></path>
                                <path d="M22.9275,5.15117647 C22.4172794,5.15117647 21.9165441,5.35720588 21.5565441,5.71897059 C21.1936765,6.07919118 20.9861029,6.58058824 20.9861029,7.09257353 C20.9861029,7.60257353 21.1945588,8.10330882 21.5565441,8.46507353 C21.9158824,8.82529412 22.4172794,9.03308824 22.9275,9.03308824 C23.4392647,9.03308824 23.9382353,8.82529412 24.3,8.46507353 C24.6619853,8.10330882 24.8686765,7.60169118 24.8686765,7.09257353 C24.8686765,6.58058824 24.6619853,6.07919118 24.3,5.71897059 C23.9397794,5.35720588 23.4392647,5.15117647 22.9275,5.15117647 Z" id="Fill-5" fill="#FFFFFF"></path>
                            </g>
                        </g>
                    </g>
                </g>
            </g>
        </g>
    </g>
</svg>