<?xml version="1.0" encoding="UTF-8"?>
<svg width="60px" height="79px" viewBox="0 0 60 79" version="1.1" xmlns="http://www.w3.org/2000/svg" xmlns:xlink="http://www.w3.org/1999/xlink">
    <!-- Generator: Sketch 51.3 (57544) - http://www.bohemiancoding.com/sketch -->
    <title>SGV-logo-footer</title>
    <desc>Created with Sketch.</desc>
    <defs></defs>
    <g id="Page-1" stroke="none" stroke-width="1" fill="none" fill-rule="evenodd">
        <g id="01-sgv" transform="translate(-690.000000, -6279.000000)" fill-rule="nonzero">
            <g id="SGV-logo-footer" transform="translate(690.000000, 6279.000000)">
                <path d="M58.0803264,51.2684218 L24.0251778,77.9459835 C22.2953947,79.2997069 19.8893314,79.354537 18.1004628,78.0809976 C16.3115941,76.8074582 15.5613334,74.5055639 16.2530131,72.4127892 L23.0508248,51.8595669 C23.1902252,51.436532 22.9629275,50.9797761 22.5428772,50.8388437 L9.40044116,46.4328167 C7.66091996,45.8488947 6.38167292,44.3488731 6.07170284,42.529599 C5.76173275,40.710325 6.47132592,38.8669386 7.91814054,37.7329093 L41.9770657,11.0553476 C43.7064935,9.70069238 46.1129045,9.64499465 47.9023579,10.9182034 C49.6918114,12.1914121 50.4426399,14.493508 49.7511187,16.5866411 L42.953307,37.1398634 C42.8852507,37.3432583 42.9005987,37.5655773 42.9959491,37.7575412 C43.0912995,37.949505 43.2587756,38.0952562 43.4612546,38.1624875 L56.5999141,42.5666136 C58.3393643,43.1511904 59.618373,44.6515172 59.9283008,46.47094 C60.2382285,48.2903628 59.5288276,50.133905 58.0822147,51.2684218 L58.0803264,51.2684218 Z" id="Shape" fill="#92D5DB"></path>
                <path d="M14.9717814,69 C13.3731123,68.9962638 11.873211,68.2210512 10.9387047,66.9155349 C10.0041985,65.6100187 9.74847574,63.932604 10.2510933,62.4051433 L17.0488841,41.8546578 C17.1164131,41.6512765 17.1008187,41.4292156 17.0055379,41.2374167 C16.9102571,41.0456178 16.7431109,40.8998247 16.5409381,40.8321699 L3.40043071,36.4305307 C1.66091486,35.8466865 0.381671746,34.3468645 0.0717026167,32.5278327 C-0.238266513,30.708801 0.471324477,28.86566 1.91813465,27.7317817 L35.9750669,1.05587165 C37.7047472,-0.299409271 40.1120362,-0.355185753 41.901847,0.918549153 C43.6916578,2.19228406 44.4419577,4.49518699 43.749096,6.58832921 L36.9513052,27.1388148 C36.8837762,27.3421961 36.8993706,27.564257 36.9946515,27.7560559 C37.0899323,27.9478547 37.2570784,28.0936478 37.4592512,28.1613027 L50.5978703,32.5648424 C52.3382661,33.1482813 53.6183048,34.6485448 53.9283278,36.4682897 C54.2383507,38.2880347 53.5280224,40.1318068 52.0801664,41.2654919 L18.0251224,67.9376009 C17.1535709,68.624607 16.078808,68.9985669 14.9717814,69 Z M7.60750795,30.5027619 C7.37356824,30.6857158 7.25880271,30.9835112 7.30898041,31.2773858 C7.35915811,31.5712604 7.56611625,31.8134073 7.8473189,31.9072573 L20.7725629,36.2404772 C22.8100075,36.9340627 23.9072568,39.1547026 23.2273207,41.2084758 L17.18484,59.4954242 C17.0717774,59.8337071 17.1927054,60.2065746 17.482288,60.4125709 C17.7718706,60.6185671 18.1614508,60.6088525 18.440543,60.3886756 L46.3964579,38.4907107 C46.6303976,38.3077568 46.7451632,38.0099614 46.6949855,37.7160868 C46.6448078,37.4222122 46.4378496,37.1800652 46.156647,37.0862153 L33.2351795,32.7548959 C31.1916962,32.067654 30.0867238,29.8450615 30.7653155,27.7868973 L36.8229025,9.49614785 C36.9359651,9.15786493 36.8150371,8.78499739 36.5254544,8.57900113 C36.2358718,8.37300487 35.8462916,8.38271952 35.5671994,8.60289637 L7.60750795,30.5027619 Z" id="Shape" fill="#FFFFFF"></path>
            </g>
        </g>
    </g>
</svg>