<svg id="Layer_1" data-name="Layer 1" xmlns="http://www.w3.org/2000/svg" viewBox="0 0 1703.74 415.09"><defs><style>.cls-1{fill:#92d5db;}.cls-2{fill:#344a91;}</style></defs><title>SGV-logo</title><path class="cls-1" d="M308.8,269.15,128.45,409.5a26.34,26.34,0,0,1-41.16-29.11l36-108.13a4.25,4.25,0,0,0-2.69-5.37L51,243.71a26.34,26.34,0,0,1-7.85-45.77L223.52,57.59a26.34,26.34,0,0,1,41.17,29.1l-36,108.13a4.24,4.24,0,0,0,2.69,5.38l69.58,23.17a26.35,26.35,0,0,1,7.85,45.78Z"/><path class="cls-2" d="M79.28,363.09a26.4,26.4,0,0,1-25-34.7l36-108.13a4.25,4.25,0,0,0-2.69-5.38L18,191.72a26.34,26.34,0,0,1-7.85-45.77L190.51,5.59A26.34,26.34,0,0,1,231.68,34.7l-36,108.13a4.25,4.25,0,0,0,2.69,5.38l69.58,23.17a26.34,26.34,0,0,1,7.85,45.78L95.45,357.5A26.28,26.28,0,0,1,79.28,363.09Zm-39-202.56a4.25,4.25,0,0,0,1.27,7.39L110,190.72A20.69,20.69,0,0,1,123,216.86L91,313.08a4.25,4.25,0,0,0,6.65,4.7L245.7,202.56a4.25,4.25,0,0,0-1.27-7.39L176,172.38a20.69,20.69,0,0,1-13.08-26.14L195,50a4.25,4.25,0,0,0-6.65-4.7Z"/><path class="cls-2" d="M372.74,229.48a11.16,11.16,0,0,1,2.86-7.73,9.19,9.19,0,0,1,13.91,0,11.17,11.17,0,0,1,2.86,7.73,24.92,24.92,0,0,0,1.55,8.37,26.8,26.8,0,0,0,4.42,7.92,24,24,0,0,0,7.12,5.91,19.52,19.52,0,0,0,9.66,2.37q9.82,0,15.79-4.63t6-13.36a15.64,15.64,0,0,0-2.21-8.45,21.11,21.11,0,0,0-5.81-6.09,45.19,45.19,0,0,0-8.27-4.54q-4.66-2-9.57-3.82-5.24-2-11.46-4.63A52.34,52.34,0,0,1,388,201.81a36.23,36.23,0,0,1-8.92-10,27.26,27.26,0,0,1-3.6-14.45,33.51,33.51,0,0,1,3.27-14.54,39,39,0,0,1,8.76-12,42.48,42.48,0,0,1,12.68-8.08,38.79,38.79,0,0,1,15.06-3,34.78,34.78,0,0,1,15.88,3.55,44.07,44.07,0,0,1,12,8.74,39,39,0,0,1,7.61,11,25.82,25.82,0,0,1,2.62,10.37,11.28,11.28,0,0,1-2.13,6q-2.13,3.28-6.87,3.28a6.32,6.32,0,0,1-5.56-2.91,56.2,56.2,0,0,1-3.76-6.55,24.13,24.13,0,0,0-7-8.92q-4.75-3.82-12.93-3.82-9,0-14.4,4.73t-5.4,11.1a10,10,0,0,0,1.55,5.64,15,15,0,0,0,4.26,4.19,34.11,34.11,0,0,0,6.3,3.28q3.6,1.46,7.69,2.91,7,3.1,14.4,6a55.74,55.74,0,0,1,13.34,7.46,34.8,34.8,0,0,1,9.74,11.74q3.76,7.19,3.77,18.65A39.17,39.17,0,0,1,453,252.77,35.29,35.29,0,0,1,443.94,265a41.14,41.14,0,0,1-13.18,7.55,46,46,0,0,1-15.46,2.64,39.28,39.28,0,0,1-15.79-3.3,43.64,43.64,0,0,1-13.58-9.27,45.19,45.19,0,0,1-9.57-14.35A47.06,47.06,0,0,1,372.74,229.48Z"/><path class="cls-2" d="M471.1,225.47a52.76,52.76,0,0,1,3.52-19.38,49.89,49.89,0,0,1,9.57-15.65,46.17,46.17,0,0,1,14.16-10.55,40.77,40.77,0,0,1,34.86,0,45.19,45.19,0,0,1,14.07,10.55,50.8,50.8,0,0,1,9.49,15.65,55.12,55.12,0,0,1,0,38.76,50.74,50.74,0,0,1-9.49,15.65,45.08,45.08,0,0,1-14.07,10.56,40.78,40.78,0,0,1-34.86,0,46.06,46.06,0,0,1-14.16-10.56,49.83,49.83,0,0,1-9.57-15.65A52.76,52.76,0,0,1,471.1,225.47Zm19,0a30,30,0,0,0,7.55,20,26.35,26.35,0,0,0,8.13,6.1,22.82,22.82,0,0,0,19.87,0,26.35,26.35,0,0,0,8.13-6.1,30.24,30.24,0,0,0,0-40,26.4,26.4,0,0,0-8.13-6.1,22.83,22.83,0,0,0-19.87,0,26.4,26.4,0,0,0-8.13,6.1,30.05,30.05,0,0,0-7.55,20Z"/><path class="cls-2" d="M594,225.47a30.11,30.11,0,0,0,7.53,20,26.27,26.27,0,0,0,8.1,6.1,22.26,22.26,0,0,0,9.9,2.28q12.6,0,19.31-8.74.49-.73,1.31-1.82a17.54,17.54,0,0,1,2-2.18,11.11,11.11,0,0,1,2.54-1.82,6.13,6.13,0,0,1,2.87-.73,8.55,8.55,0,0,1,6.54,3.09,10.54,10.54,0,0,1,2.78,7.28,11.36,11.36,0,0,1-1.06,4.46,23.63,23.63,0,0,1-2.95,4.91,50.17,50.17,0,0,1-4.34,4.91,37,37,0,0,1-5.07,4.28A39.41,39.41,0,0,1,632,273.15,43.05,43.05,0,0,1,619.54,275a39.57,39.57,0,0,1-17.43-3.91A45.45,45.45,0,0,1,588,260.5a49.89,49.89,0,0,1-9.49-15.65,55.59,55.59,0,0,1,0-38.76A50,50,0,0,1,588,190.44a45.56,45.56,0,0,1,14.1-10.55A39.57,39.57,0,0,1,619.54,176a44.83,44.83,0,0,1,12.19,1.73,37.46,37.46,0,0,1,11.54,5.55,39.66,39.66,0,0,1,9.33,8.83q3.76,5,3.76,8.83a10.77,10.77,0,0,1-2.78,7.46,8.54,8.54,0,0,1-6.55,3.09,7,7,0,0,1-4.83-2,59.51,59.51,0,0,1-4.34-4.37,22.65,22.65,0,0,0-7.86-6,25.23,25.23,0,0,0-10.47-2,22.32,22.32,0,0,0-9.9,2.27,26.32,26.32,0,0,0-8.1,6.1,30.11,30.11,0,0,0-7.53,20Z"/><path class="cls-2" d="M672.07,149.4a13.89,13.89,0,0,1,3.44-9.65,10.82,10.82,0,0,1,8.35-3.82,11.17,11.17,0,0,1,8.67,3.82A13.89,13.89,0,0,1,696,149.4a13.39,13.39,0,0,1-3.44,9.28,11.17,11.17,0,0,1-8.67,3.82,10.82,10.82,0,0,1-8.35-3.82A13.39,13.39,0,0,1,672.07,149.4Zm2.13,41.49a11,11,0,0,1,2.78-7.64,9.18,9.18,0,0,1,13.75,0,11,11,0,0,1,2.78,7.64v69.52a11,11,0,0,1-2.78,7.64,9.18,9.18,0,0,1-13.75,0,11,11,0,0,1-2.78-7.64Z"/><path class="cls-2" d="M712.32,225.47a52.8,52.8,0,0,1,3.52-19.38,50,50,0,0,1,9.57-15.65,46.17,46.17,0,0,1,14.16-10.55,40.77,40.77,0,0,1,34.86,0,45.23,45.23,0,0,1,14.07,10.55A50.87,50.87,0,0,1,798,206.09a52.84,52.84,0,0,1,3.52,19.38V260.6a10.77,10.77,0,0,1-2.78,7.46,8.71,8.71,0,0,1-6.71,3.09,7.94,7.94,0,0,1-6.22-2.55,11.29,11.29,0,0,1-2.78-4.55Q771.24,275,757,275a43.35,43.35,0,0,1-18.41-3.82,41.17,41.17,0,0,1-14.07-10.55,48.7,48.7,0,0,1-9-15.74A57.64,57.64,0,0,1,712.32,225.47Zm19,0a30,30,0,0,0,7.55,20,26.33,26.33,0,0,0,8.13,6.1,22.4,22.4,0,0,0,9.93,2.28,24.14,24.14,0,0,0,18.06-8,29.49,29.49,0,0,0,5.5-9,30.63,30.63,0,0,0,2.05-11.37,30.08,30.08,0,0,0-7.55-20,26.37,26.37,0,0,0-8.13-6.1,22.83,22.83,0,0,0-19.87,0,26.37,26.37,0,0,0-8.13,6.1,30.05,30.05,0,0,0-7.55,20Z"/><path class="cls-2" d="M821.15,154.5a11,11,0,0,1,2.78-7.64,9.18,9.18,0,0,1,13.75,0,11,11,0,0,1,2.78,7.64V260.41a11,11,0,0,1-2.78,7.64,9.18,9.18,0,0,1-13.75,0,11,11,0,0,1-2.78-7.64Z"/><path class="cls-2" d="M965.33,275.15a52.53,52.53,0,0,1-23.4-5.37,61.11,61.11,0,0,1-19.15-14.65,70.89,70.89,0,0,1-12.93-21.57,71.81,71.81,0,0,1-4.75-26.11,72.55,72.55,0,0,1,4.75-26.21,69.48,69.48,0,0,1,12.93-21.57,61.82,61.82,0,0,1,19.15-14.56,52.53,52.53,0,0,1,23.4-5.37,51,51,0,0,1,21.28,4.37,70.12,70.12,0,0,1,16.53,10.19,50.34,50.34,0,0,1,10.64,12q3.76,6.19,3.76,9.64a9.94,9.94,0,0,1-2.54,7.19,9,9,0,0,1-6.79,2.64q-3.11,0-6.05-3.73a102.19,102.19,0,0,0-7.45-8.28,48.32,48.32,0,0,0-11.37-8.28q-6.87-3.73-17.68-3.73a36.25,36.25,0,0,0-15.79,3.55,42.11,42.11,0,0,0-13.09,9.74,46.47,46.47,0,0,0-8.92,14.56,48.51,48.51,0,0,0-3.27,17.83,48.2,48.2,0,0,0,12.36,32.39A43.32,43.32,0,0,0,950,249.68a35.13,35.13,0,0,0,15.63,3.64q10.31,0,16.53-2.82a26.2,26.2,0,0,0,9.66-7,25.08,25.08,0,0,0,4.83-9,56.57,56.57,0,0,0,1.88-9H977a8.87,8.87,0,0,1-6.87-3.09,11,11,0,0,1-2.78-7.64,11.34,11.34,0,0,1,2.78-7.73,8.77,8.77,0,0,1,6.87-3.18h31.75a8.39,8.39,0,0,1,4.91,1.37,9.77,9.77,0,0,1,3,3.28,13.72,13.72,0,0,1,1.47,3.91,17.89,17.89,0,0,1,.41,3.46q0,17.65-4.83,29.12t-12.52,18.2a43.59,43.59,0,0,1-17.1,9.37A69.24,69.24,0,0,1,965.33,275.15Z"/><path class="cls-2" d="M1031.61,225.47a52.8,52.8,0,0,1,3.52-19.38,50,50,0,0,1,9.57-15.65,46.17,46.17,0,0,1,14.16-10.55,40.77,40.77,0,0,1,34.86,0,45.23,45.23,0,0,1,14.07,10.55,50.87,50.87,0,0,1,9.49,15.65,55.15,55.15,0,0,1,0,38.76,50.81,50.81,0,0,1-9.49,15.65,45.13,45.13,0,0,1-14.07,10.56,40.78,40.78,0,0,1-34.86,0,46.06,46.06,0,0,1-14.16-10.56,49.9,49.9,0,0,1-9.57-15.65A52.8,52.8,0,0,1,1031.61,225.47Zm19,0a30,30,0,0,0,7.55,20,26.33,26.33,0,0,0,8.13,6.1,22.82,22.82,0,0,0,19.87,0,26.33,26.33,0,0,0,8.13-6.1,30.24,30.24,0,0,0,0-40,26.37,26.37,0,0,0-8.13-6.1,22.83,22.83,0,0,0-19.87,0,26.37,26.37,0,0,0-8.13,6.1,30.05,30.05,0,0,0-7.55,20Z"/><path class="cls-2" d="M1192.32,217.47q0-9.1-5.24-14.56a17,17,0,0,0-12.77-5.46,16.76,16.76,0,0,0-12.68,5.46q-5.16,5.46-5.15,14.56v42.95a11,11,0,0,1-2.78,7.64,9.18,9.18,0,0,1-13.75,0,11,11,0,0,1-2.78-7.64v-69.7a10.86,10.86,0,0,1,2.78-7.37,9.21,9.21,0,0,1,12.93-1,11.2,11.2,0,0,1,3.11,4.91q.82-1.27,2.29-3.28a18.34,18.34,0,0,1,3.77-3.73,22,22,0,0,1,13.75-4.28,33.69,33.69,0,0,1,25.37,11.28,40.73,40.73,0,0,1,7.77,13.1,48.49,48.49,0,0,1,2.86,17.11v42.95a11,11,0,0,1-2.78,7.64,8.88,8.88,0,0,1-6.87,3.09,9.12,9.12,0,0,1-7-3.09,10.82,10.82,0,0,1-2.86-7.64Z"/><path class="cls-2" d="M1247.15,226.93a28.31,28.31,0,0,0,2.29,10.55A29.22,29.22,0,0,0,1255,246a25.42,25.42,0,0,0,8,5.73,23,23,0,0,0,9.65,2.09q8.18,0,12.68-2.64a29.45,29.45,0,0,0,7.37-5.92q2.86-3.28,4.91-5.91a6.58,6.58,0,0,1,5.48-2.64,9.09,9.09,0,0,1,6.3,2.91,9.91,9.91,0,0,1,3,7.46q0,3.82-3.11,8.64a38.78,38.78,0,0,1-8.43,9.1,48.94,48.94,0,0,1-12.6,7.19,41.74,41.74,0,0,1-15.63,2.91,39.57,39.57,0,0,1-17.43-3.91,45.45,45.45,0,0,1-14.1-10.56,49.89,49.89,0,0,1-9.49-15.65,55.59,55.59,0,0,1,0-38.76,50,50,0,0,1,9.49-15.65,45.56,45.56,0,0,1,14.1-10.55,39.57,39.57,0,0,1,17.43-3.91,40.22,40.22,0,0,1,14.24,2.46,41.62,41.62,0,0,1,11.7,6.64,44.11,44.11,0,0,1,9,10,60.16,60.16,0,0,1,6.3,12.56,41.45,41.45,0,0,1,2.46,10.19,9.13,9.13,0,0,1-2.46,6.46,7.77,7.77,0,0,1-5.89,2.64Zm48.93-14.2a28.39,28.39,0,0,0-8.67-13,22.44,22.44,0,0,0-29.13,0,28.36,28.36,0,0,0-8.67,13Z"/><path class="cls-2" d="M1378.72,143.76a8.79,8.79,0,0,1,6.05,2.18,10.56,10.56,0,0,1,3.27,5.28L1411,229.84q3.11-10.92,6.22-21.66t6.38-21.66l10.31-35.3q1.31-4.37,4.09-5.92a10.64,10.64,0,0,1,5.07-1.55,9.22,9.22,0,0,1,3.44.73,10.67,10.67,0,0,1,3.27,2.09,10.25,10.25,0,0,1,2.37,3.37,10.55,10.55,0,0,1,.9,4.37,13.31,13.31,0,0,1-.49,3.46l-30.6,105.92a9.44,9.44,0,0,1-3.76,5.55,9.78,9.78,0,0,1-5.56,1.91h-3.44a9.27,9.27,0,0,1-5.56-1.91,9.72,9.72,0,0,1-3.6-5.55l-30.6-105.92a13.24,13.24,0,0,1-.49-3.46,10.12,10.12,0,0,1,3-7.64A9.57,9.57,0,0,1,1378.72,143.76Z"/><path class="cls-2" d="M1466.44,149.4a13.89,13.89,0,0,1,3.44-9.65,10.82,10.82,0,0,1,8.35-3.82,11.17,11.17,0,0,1,8.67,3.82,13.89,13.89,0,0,1,3.44,9.65,13.39,13.39,0,0,1-3.44,9.28,11.17,11.17,0,0,1-8.67,3.82,10.82,10.82,0,0,1-8.35-3.82A13.39,13.39,0,0,1,1466.44,149.4Zm2.13,41.49a11,11,0,0,1,2.78-7.64,9.18,9.18,0,0,1,13.75,0,11,11,0,0,1,2.78,7.64v69.52a11,11,0,0,1-2.78,7.64,9.18,9.18,0,0,1-13.75,0,11,11,0,0,1-2.78-7.64Z"/><path class="cls-2" d="M1520.28,180.16a8.8,8.8,0,0,1,6.63,3.09,10.61,10.61,0,0,1,2.86,7.46v1.46a27.61,27.61,0,0,1,5.81-6.28,45.08,45.08,0,0,1,7.94-5.19,50.09,50.09,0,0,1,8.51-3.46,27.14,27.14,0,0,1,7.69-1.27,9.32,9.32,0,0,1,7.2,3.28,11.55,11.55,0,0,1,2.95,8,11.21,11.21,0,0,1-2.95,7.92,9.44,9.44,0,0,1-7.2,3.19,26.05,26.05,0,0,0-11,2.46,32.89,32.89,0,0,0-9.57,6.73,33.27,33.27,0,0,0-6.79,9.92,28.93,28.93,0,0,0-2.54,12V260.6a10.77,10.77,0,0,1-2.78,7.46,8.82,8.82,0,0,1-13.42,0,10.76,10.76,0,0,1-2.78-7.46V190.71a10.76,10.76,0,0,1,2.78-7.46A8.71,8.71,0,0,1,1520.28,180.16Z"/><path class="cls-2" d="M1575.6,225.47a52.8,52.8,0,0,1,3.52-19.38,50,50,0,0,1,9.57-15.65,46.17,46.17,0,0,1,14.16-10.55,40.77,40.77,0,0,1,34.86,0,45.23,45.23,0,0,1,14.07,10.55,50.87,50.87,0,0,1,9.49,15.65,52.84,52.84,0,0,1,3.52,19.38V260.6a10.77,10.77,0,0,1-2.78,7.46,8.71,8.71,0,0,1-6.71,3.09,7.94,7.94,0,0,1-6.22-2.55,11.29,11.29,0,0,1-2.78-4.55q-11.78,10.92-26,10.92a43.35,43.35,0,0,1-18.41-3.82,41.17,41.17,0,0,1-14.07-10.55,48.7,48.7,0,0,1-9-15.74A57.64,57.64,0,0,1,1575.6,225.47Zm19,0a30,30,0,0,0,7.55,20,26.33,26.33,0,0,0,8.13,6.1,22.4,22.4,0,0,0,9.93,2.28,24.14,24.14,0,0,0,18.06-8,29.49,29.49,0,0,0,5.5-9,30.63,30.63,0,0,0,2.05-11.37,30.08,30.08,0,0,0-7.55-20,26.37,26.37,0,0,0-8.13-6.1,22.83,22.83,0,0,0-19.87,0,26.37,26.37,0,0,0-8.13,6.1,30.05,30.05,0,0,0-7.55,20Z"/><path class="cls-2" d="M1684.43,154.5a11,11,0,0,1,2.78-7.64,9.18,9.18,0,0,1,13.75,0,11,11,0,0,1,2.78,7.64V260.41a11,11,0,0,1-2.78,7.64,9.18,9.18,0,0,1-13.75,0,11,11,0,0,1-2.78-7.64Z"/></svg>